General

Format                           : MPEG-4
Format profile                   : Base Media
Codec ID                         : isom
File size                        : 71.1 MiB
Duration                         : 6mn 22s
Overall bit rate                 : 1 561 Kbps
Encoded date                     : UTC 2012-06-18 02:59:48
Tagged date                      : UTC 2012-06-18 02:59:48

Video
ID                               : 1
Format                           : AVC
Format/Info                      : Advanced Video Codec
Format profile                   : High@L3.0
Format settings, CABAC           : Yes
Format settings, ReFrames        : 2 frames
Codec ID                         : avc1
Codec ID/Info                    : Advanced Video Coding
Duration                         : 6mn 22s
Bit rate mode                    : Variable
Bit rate                         : 1 476 Kbps
Maximum bit rate                 : 4 574 Kbps
Width                            : 720 pixels
Height                           : 480 pixels
Display aspect ratio             : 16:9
Original display aspect ratio    : 16:9
Frame rate mode                  : Constant
Frame rate                       : 23.976 fps
Standard                         : NTSC
Color space                      : YUV
Chroma subsampling               : 4:2:0
Bit depth                        : 8 bits
Scan type                        : Progressive
Bits/(Pixel*Frame)               : 0.178
Stream size                      : 68.1 MiB (96%)


Audio
ID                               : 2
Format                           : AAC
Format/Info                      : Advanced Audio Codec
Format profile                   : LC
Codec ID                         : 40
Duration                         : 6mn 22s
Bit rate mode                    : Variable
Bit rate                         : 59.7 Kbps
Maximum bit rate                 : 86.0 Kbps
Channel(s)                       : 2 channels
Channel positions                : Front: L R
Sampling rate                    : 44.1 KHz
Compression mode                 : Lossy
Stream size                      : 2.72 MiB (4%)